<mxfile host="app.diagrams.net" modified="2023-08-30T01:10:04.470Z" agent="Mozilla/5.0 (Windows NT 10.0; Win64; x64) AppleWebKit/537.36 (KHTML, like Gecko) Chrome/116.0.0.0 Safari/537.36" etag="CcDn9Vv6kesXKguFFIGn" version="21.7.0" type="device">
  <diagram name="Página-1" id="UvHkxHdqm7Ipykr3BWpw">
    <mxGraphModel dx="794" dy="456" grid="1" gridSize="10" guides="1" tooltips="1" connect="1" arrows="1" fold="1" page="1" pageScale="1" pageWidth="827" pageHeight="1169" math="0" shadow="0">
      <root>
        <mxCell id="0" />
        <mxCell id="1" parent="0" />
        <mxCell id="7mcIlptZQAwdeFqQ97Hl-34" style="edgeStyle=orthogonalEdgeStyle;rounded=0;orthogonalLoop=1;jettySize=auto;html=1;entryX=0;entryY=0.75;entryDx=0;entryDy=0;endArrow=block;endFill=0;startArrow=diamond;startFill=1;" edge="1" parent="1" source="7mcIlptZQAwdeFqQ97Hl-1" target="7mcIlptZQAwdeFqQ97Hl-7">
          <mxGeometry relative="1" as="geometry" />
        </mxCell>
        <mxCell id="7mcIlptZQAwdeFqQ97Hl-1" value="Inseto" style="swimlane;fontStyle=0;childLayout=stackLayout;horizontal=1;startSize=26;fillColor=none;horizontalStack=0;resizeParent=1;resizeParentMax=0;resizeLast=0;collapsible=1;marginBottom=0;whiteSpace=wrap;html=1;" vertex="1" parent="1">
          <mxGeometry x="30" y="110" width="250" height="104" as="geometry" />
        </mxCell>
        <mxCell id="7mcIlptZQAwdeFqQ97Hl-2" value="+ nome: String" style="text;strokeColor=none;fillColor=none;align=left;verticalAlign=top;spacingLeft=4;spacingRight=4;overflow=hidden;rotatable=0;points=[[0,0.5],[1,0.5]];portConstraint=eastwest;whiteSpace=wrap;html=1;" vertex="1" parent="7mcIlptZQAwdeFqQ97Hl-1">
          <mxGeometry y="26" width="250" height="26" as="geometry" />
        </mxCell>
        <mxCell id="7mcIlptZQAwdeFqQ97Hl-3" value="+ locomocao: Locomocao" style="text;strokeColor=none;fillColor=none;align=left;verticalAlign=top;spacingLeft=4;spacingRight=4;overflow=hidden;rotatable=0;points=[[0,0.5],[1,0.5]];portConstraint=eastwest;whiteSpace=wrap;html=1;" vertex="1" parent="7mcIlptZQAwdeFqQ97Hl-1">
          <mxGeometry y="52" width="250" height="26" as="geometry" />
        </mxCell>
        <mxCell id="7mcIlptZQAwdeFqQ97Hl-4" value="+ realizarLocomocao(String): Locomocao" style="text;strokeColor=none;fillColor=none;align=left;verticalAlign=top;spacingLeft=4;spacingRight=4;overflow=hidden;rotatable=0;points=[[0,0.5],[1,0.5]];portConstraint=eastwest;whiteSpace=wrap;html=1;" vertex="1" parent="7mcIlptZQAwdeFqQ97Hl-1">
          <mxGeometry y="78" width="250" height="26" as="geometry" />
        </mxCell>
        <mxCell id="7mcIlptZQAwdeFqQ97Hl-7" value="«interface»&lt;br&gt;&lt;b&gt;Locomocao&lt;/b&gt;" style="html=1;whiteSpace=wrap;" vertex="1" parent="1">
          <mxGeometry x="355" y="110" width="215" height="80" as="geometry" />
        </mxCell>
        <mxCell id="7mcIlptZQAwdeFqQ97Hl-12" value="+locomover(String)" style="rounded=0;whiteSpace=wrap;html=1;align=left;" vertex="1" parent="1">
          <mxGeometry x="355" y="190" width="215" height="30" as="geometry" />
        </mxCell>
        <mxCell id="7mcIlptZQAwdeFqQ97Hl-31" style="edgeStyle=orthogonalEdgeStyle;rounded=0;orthogonalLoop=1;jettySize=auto;html=1;entryX=0.5;entryY=1;entryDx=0;entryDy=0;entryPerimeter=0;endArrow=none;endFill=0;dashed=1;dashPattern=12 12;" edge="1" parent="1" source="7mcIlptZQAwdeFqQ97Hl-14" target="7mcIlptZQAwdeFqQ97Hl-29">
          <mxGeometry relative="1" as="geometry" />
        </mxCell>
        <mxCell id="7mcIlptZQAwdeFqQ97Hl-14" value="Voo" style="swimlane;fontStyle=1;align=center;verticalAlign=top;childLayout=stackLayout;horizontal=1;startSize=26;horizontalStack=0;resizeParent=1;resizeParentMax=0;resizeLast=0;collapsible=1;marginBottom=0;whiteSpace=wrap;html=1;" vertex="1" parent="1">
          <mxGeometry x="520" y="310" width="190" height="60" as="geometry" />
        </mxCell>
        <mxCell id="7mcIlptZQAwdeFqQ97Hl-16" value="" style="line;strokeWidth=1;fillColor=none;align=left;verticalAlign=middle;spacingTop=-1;spacingLeft=3;spacingRight=3;rotatable=0;labelPosition=right;points=[];portConstraint=eastwest;strokeColor=inherit;" vertex="1" parent="7mcIlptZQAwdeFqQ97Hl-14">
          <mxGeometry y="26" width="190" height="8" as="geometry" />
        </mxCell>
        <mxCell id="7mcIlptZQAwdeFqQ97Hl-17" value="+ locomover(String): Locomocao" style="text;strokeColor=none;fillColor=none;align=left;verticalAlign=top;spacingLeft=4;spacingRight=4;overflow=hidden;rotatable=0;points=[[0,0.5],[1,0.5]];portConstraint=eastwest;whiteSpace=wrap;html=1;" vertex="1" parent="7mcIlptZQAwdeFqQ97Hl-14">
          <mxGeometry y="34" width="190" height="26" as="geometry" />
        </mxCell>
        <mxCell id="7mcIlptZQAwdeFqQ97Hl-33" style="edgeStyle=orthogonalEdgeStyle;rounded=0;orthogonalLoop=1;jettySize=auto;html=1;entryX=0.5;entryY=1;entryDx=0;entryDy=0;entryPerimeter=0;endArrow=none;endFill=0;dashed=1;dashPattern=12 12;" edge="1" parent="1" source="7mcIlptZQAwdeFqQ97Hl-23" target="7mcIlptZQAwdeFqQ97Hl-29">
          <mxGeometry relative="1" as="geometry" />
        </mxCell>
        <mxCell id="7mcIlptZQAwdeFqQ97Hl-23" value="Rastejo&lt;br&gt;" style="swimlane;fontStyle=1;align=center;verticalAlign=top;childLayout=stackLayout;horizontal=1;startSize=26;horizontalStack=0;resizeParent=1;resizeParentMax=0;resizeLast=0;collapsible=1;marginBottom=0;whiteSpace=wrap;html=1;" vertex="1" parent="1">
          <mxGeometry x="190" y="310" width="190" height="60" as="geometry" />
        </mxCell>
        <mxCell id="7mcIlptZQAwdeFqQ97Hl-24" value="" style="line;strokeWidth=1;fillColor=none;align=left;verticalAlign=middle;spacingTop=-1;spacingLeft=3;spacingRight=3;rotatable=0;labelPosition=right;points=[];portConstraint=eastwest;strokeColor=inherit;" vertex="1" parent="7mcIlptZQAwdeFqQ97Hl-23">
          <mxGeometry y="26" width="190" height="8" as="geometry" />
        </mxCell>
        <mxCell id="7mcIlptZQAwdeFqQ97Hl-25" value="+ locomover(String): Locomocao" style="text;strokeColor=none;fillColor=none;align=left;verticalAlign=top;spacingLeft=4;spacingRight=4;overflow=hidden;rotatable=0;points=[[0,0.5],[1,0.5]];portConstraint=eastwest;whiteSpace=wrap;html=1;" vertex="1" parent="7mcIlptZQAwdeFqQ97Hl-23">
          <mxGeometry y="34" width="190" height="26" as="geometry" />
        </mxCell>
        <mxCell id="7mcIlptZQAwdeFqQ97Hl-29" value="" style="verticalLabelPosition=bottom;verticalAlign=top;html=1;shape=mxgraph.basic.acute_triangle;dx=0.5;" vertex="1" parent="1">
          <mxGeometry x="420" y="220" width="60" height="40" as="geometry" />
        </mxCell>
      </root>
    </mxGraphModel>
  </diagram>
</mxfile>
